<svg xmlns="http://www.w3.org/2000/svg" xmlns:xlink="http://www.w3.org/1999/xlink" width="416.272" height="472.031" viewBox="0 0 416.272 472.031"><defs><filter id="a" x="89.068" y="0" width="149.068" height="149.068" filterUnits="userSpaceOnUse"><feOffset dy="10" input="SourceAlpha"/><feGaussianBlur stdDeviation="10" result="b"/><feFlood flood-opacity="0.161"/><feComposite operator="in" in2="b"/><feComposite in="SourceGraphic"/></filter><filter id="c" x="0" y="89.068" width="149.068" height="149.068" filterUnits="userSpaceOnUse"><feOffset dy="10" input="SourceAlpha"/><feGaussianBlur stdDeviation="10" result="d"/><feFlood flood-opacity="0.161"/><feComposite operator="in" in2="d"/><feComposite in="SourceGraphic"/></filter><filter id="e" x="89.068" y="161.481" width="149.068" height="149.068" filterUnits="userSpaceOnUse"><feOffset dy="10" input="SourceAlpha"/><feGaussianBlur stdDeviation="10" result="f"/><feFlood flood-opacity="0.161"/><feComposite operator="in" in2="f"/><feComposite in="SourceGraphic"/></filter><filter id="g" x="0" y="238.764" width="149.068" height="149.068" filterUnits="userSpaceOnUse"><feOffset dy="10" input="SourceAlpha"/><feGaussianBlur stdDeviation="10" result="h"/><feFlood flood-opacity="0.161"/><feComposite operator="in" in2="h"/><feComposite in="SourceGraphic"/></filter><filter id="i" x="97.097" y="322.963" width="149.068" height="149.068" filterUnits="userSpaceOnUse"><feOffset dy="10" input="SourceAlpha"/><feGaussianBlur stdDeviation="10" result="j"/><feFlood flood-opacity="0.161"/><feComposite operator="in" in2="j"/><feComposite in="SourceGraphic"/></filter><filter id="k" x="178.136" y="238.764" width="149.068" height="149.068" filterUnits="userSpaceOnUse"><feOffset dy="10" input="SourceAlpha"/><feGaussianBlur stdDeviation="10" result="l"/><feFlood flood-opacity="0.161"/><feComposite operator="in" in2="l"/><feComposite in="SourceGraphic"/></filter><filter id="m" x="178.136" y="89.068" width="149.068" height="149.068" filterUnits="userSpaceOnUse"><feOffset dy="10" input="SourceAlpha"/><feGaussianBlur stdDeviation="10" result="n"/><feFlood flood-opacity="0.161"/><feComposite operator="in" in2="n"/><feComposite in="SourceGraphic"/></filter><filter id="o" x="267.204" y="161.481" width="149.068" height="149.068" filterUnits="userSpaceOnUse"><feOffset dy="10" input="SourceAlpha"/><feGaussianBlur stdDeviation="10" result="p"/><feFlood flood-opacity="0.161"/><feComposite operator="in" in2="p"/><feComposite in="SourceGraphic"/></filter><filter id="q" x="265.446" y="9.554" width="149.068" height="149.068" filterUnits="userSpaceOnUse"><feOffset dy="10" input="SourceAlpha"/><feGaussianBlur stdDeviation="10" result="r"/><feFlood flood-opacity="0.161"/><feComposite operator="in" in2="r"/><feComposite in="SourceGraphic"/></filter><filter id="s" x="265.446" y="317.051" width="149.068" height="149.068" filterUnits="userSpaceOnUse"><feOffset dy="10" input="SourceAlpha"/><feGaussianBlur stdDeviation="10" result="t"/><feFlood flood-opacity="0.161"/><feComposite operator="in" in2="t"/><feComposite in="SourceGraphic"/></filter></defs><g transform="translate(-1118.981 -198.22)"><g transform="matrix(1, 0, 0, 1, 1118.98, 198.22)" filter="url(#a)"><rect width="63.733" height="62.228" rx="27" transform="translate(119.07 65.07) rotate(-45)" fill="rgba(52,91,94,0.05)"/></g><g transform="matrix(1, 0, 0, 1, 1118.98, 198.22)" filter="url(#c)"><rect width="63.733" height="62.228" rx="27" transform="translate(30 154.13) rotate(-45)" fill="rgba(52,91,94,0.05)"/></g><g transform="matrix(1, 0, 0, 1, 1118.98, 198.22)" filter="url(#e)"><rect width="63.733" height="62.228" rx="27" transform="translate(119.07 226.55) rotate(-45)" fill="rgba(52,91,94,0.05)"/></g><g transform="matrix(1, 0, 0, 1, 1118.98, 198.22)" filter="url(#g)"><rect width="63.733" height="62.228" rx="27" transform="translate(30 303.83) rotate(-45)" fill="rgba(52,91,94,0.05)"/></g><g transform="matrix(1, 0, 0, 1, 1118.98, 198.22)" filter="url(#i)"><rect width="63.733" height="62.228" rx="27" transform="translate(127.1 388.03) rotate(-45)" fill="rgba(52,91,94,0.05)"/></g><g transform="matrix(1, 0, 0, 1, 1118.98, 198.22)" filter="url(#k)"><rect width="63.733" height="62.228" rx="27" transform="translate(208.14 303.83) rotate(-45)" fill="rgba(52,91,94,0.05)"/></g><g transform="matrix(1, 0, 0, 1, 1118.98, 198.22)" filter="url(#m)"><rect width="63.733" height="62.228" rx="27" transform="translate(208.14 154.13) rotate(-45)" fill="rgba(52,91,94,0.05)"/></g><g transform="matrix(1, 0, 0, 1, 1118.98, 198.22)" filter="url(#o)"><rect width="63.733" height="62.228" rx="27" transform="translate(297.2 226.55) rotate(-45)" fill="rgba(52,91,94,0.05)"/></g><g transform="matrix(1, 0, 0, 1, 1118.98, 198.22)" filter="url(#q)"><rect width="63.733" height="62.228" rx="27" transform="translate(295.45 74.62) rotate(-45)" fill="rgba(52,91,94,0.05)"/></g><g transform="matrix(1, 0, 0, 1, 1118.98, 198.22)" filter="url(#s)"><rect width="63.733" height="62.228" rx="27" transform="translate(295.45 382.12) rotate(-45)" fill="rgba(52,91,94,0.05)"/></g></g></svg>