<svg xmlns="http://www.w3.org/2000/svg" width="342.864" height="117.201" viewBox="0 0 342.864 167.201"><g transform="translate(2036.708 -2578.064)"><path d="M852,717.677H585.13s-5.409-79.339,26.6-80.24,28.4,35.161,68.52-14.425,88.805-46.882,95.116-17.581S763.191,658.173,797,650.96,879.495,662.681,852,717.677Z" transform="translate(-2592.514 2025.381)" fill="#345b5e"/><path d="M714.059,717.7l-.9-.036c2.1-52.236,13.041-85.8,21.848-104.755,9.563-20.583,18.778-28.916,18.87-29l.6.674c-.091.081-9.2,8.331-18.685,28.775C727.032,632.232,716.151,665.656,714.059,717.7Z" transform="translate(-2592.514 2025.381)" fill="#f2f2f2"/><path d="M810.644,717.8l-.865-.252c10.422-35.772,34.964-58.357,35.211-58.581l.606.667C845.351,659.86,820.992,682.285,810.644,717.8Z" transform="translate(-2592.514 2025.381)" fill="#f2f2f2"/><path d="M627.163,717.739l-.893-.124c3.536-25.5-2.851-45.287-8.832-57.394-6.476-13.109-13.865-20.269-13.939-20.34l.624-.651c.075.072,7.578,7.342,14.123,20.591C624.283,672.043,630.73,692.011,627.163,717.739Z" transform="translate(-2592.514 2025.381)" fill="#f2f2f2"/><path d="M888.216,719.883H556.346l-.077-1.124c-.191-2.8-4.424-68.764,16.95-92.3,4.778-5.262,10.534-8.024,17.107-8.209,13.933-.4,22.688,4.822,29.75,9.011,13.311,7.9,22.1,13.113,54.076-26.4,34.635-42.808,72-52.018,93.488-46.9,13.88,3.31,23.447,12.663,26.247,25.662,2.651,12.309,1.807,23.875,1.128,33.168-.726,9.943-1.3,17.8,2.784,21.357,3.409,2.97,10.214,3.24,21.413.85,22.78-4.86,54.565-.7,70.52,19.912,8.584,11.09,15.345,31.249-1.183,64.306Zm-329.605-2.412H886.722c12.317-24.988,12.7-46.1,1.1-61.084-14.636-18.91-45.341-23.887-68.109-19.029-12.168,2.6-19.418,2.168-23.5-1.39-4.993-4.351-4.381-12.735-3.606-23.351.668-9.14,1.5-20.514-1.08-32.485-2.6-12.055-11.508-20.738-24.448-23.823-20.8-4.962-57.123,4.132-91.053,46.067-33.282,41.135-43.308,35.19-57.181,26.96-7.149-4.24-15.266-9.049-28.452-8.675-5.892.166-11.07,2.662-15.39,7.419-19.209,21.153-16.864,80.473-16.393,89.391Z" transform="translate(-2592.514 2025.381)" fill="#d1dee2"/></g></svg>