<svg xmlns="http://www.w3.org/2000/svg" width="113.87" height="65.397" viewBox="0 0 113.87 65.397"><path d="M0,18.1A14.1,14.1,0,0,1,14.1,4H98.682a14.1,14.1,0,0,1,14.1,14.1V53.341a14.1,14.1,0,0,1-14.1,14.1H14.1A14.1,14.1,0,0,1,0,53.341ZM91.634,19.86v3.524A1.763,1.763,0,0,0,93.4,25.146H96.92a1.762,1.762,0,0,0,1.762-1.762V19.86A1.762,1.762,0,0,0,96.92,18.1H93.4A1.762,1.762,0,0,0,91.634,19.86ZM15.86,32.195A1.762,1.762,0,0,0,14.1,33.957v3.524a1.763,1.763,0,0,0,1.762,1.762h3.524a1.762,1.762,0,0,0,1.762-1.762V33.957a1.762,1.762,0,0,0-1.762-1.762Zm12.335,1.762v3.524a1.763,1.763,0,0,0,1.762,1.762h3.524a1.762,1.762,0,0,0,1.762-1.762V33.957a1.762,1.762,0,0,0-1.762-1.762H29.957A1.762,1.762,0,0,0,28.195,33.957Zm15.86-1.762a1.762,1.762,0,0,0-1.762,1.762v3.524a1.763,1.763,0,0,0,1.762,1.762h3.524a1.762,1.762,0,0,0,1.762-1.762V33.957a1.762,1.762,0,0,0-1.762-1.762ZM56.39,33.957v3.524a1.763,1.763,0,0,0,1.762,1.762h3.524a1.762,1.762,0,0,0,1.762-1.762V33.957a1.762,1.762,0,0,0-1.762-1.762H58.152A1.762,1.762,0,0,0,56.39,33.957ZM93.4,32.195a1.762,1.762,0,0,0-1.762,1.762v3.524A1.763,1.763,0,0,0,93.4,39.244H96.92a1.762,1.762,0,0,0,1.762-1.762V33.957a1.762,1.762,0,0,0-1.762-1.762Zm0,14.1a1.762,1.762,0,0,0-1.762,1.762v3.524A1.763,1.763,0,0,0,93.4,53.341H96.92a1.762,1.762,0,0,0,1.762-1.762V48.055a1.762,1.762,0,0,0-1.762-1.762ZM72.25,32.195a1.762,1.762,0,0,0-1.762,1.762v3.524a1.763,1.763,0,0,0,1.762,1.762H82.823a1.762,1.762,0,0,0,1.762-1.762V33.957a1.762,1.762,0,0,0-1.762-1.762Zm5.287,15.86v3.524A1.763,1.763,0,0,0,79.3,53.341h3.524a1.762,1.762,0,0,0,1.762-1.762V48.055a1.762,1.762,0,0,0-1.762-1.762H79.3A1.762,1.762,0,0,0,77.536,48.055ZM79.3,18.1a1.762,1.762,0,0,0-1.762,1.762v3.524A1.763,1.763,0,0,0,79.3,25.146h3.524a1.762,1.762,0,0,0,1.762-1.762V19.86A1.762,1.762,0,0,0,82.823,18.1ZM63.439,19.86v3.524A1.763,1.763,0,0,0,65.2,25.146h3.524a1.762,1.762,0,0,0,1.762-1.762V19.86A1.762,1.762,0,0,0,68.725,18.1H65.2A1.762,1.762,0,0,0,63.439,19.86ZM51.1,18.1a1.762,1.762,0,0,0-1.762,1.762v3.524A1.763,1.763,0,0,0,51.1,25.146h3.524a1.762,1.762,0,0,0,1.762-1.762V19.86A1.762,1.762,0,0,0,54.628,18.1ZM35.244,19.86v3.524a1.763,1.763,0,0,0,1.762,1.762H40.53a1.762,1.762,0,0,0,1.762-1.762V19.86A1.762,1.762,0,0,0,40.53,18.1H37.006A1.762,1.762,0,0,0,35.244,19.86ZM15.86,18.1A1.762,1.762,0,0,0,14.1,19.86v3.524a1.763,1.763,0,0,0,1.762,1.762H26.433a1.762,1.762,0,0,0,1.762-1.762V19.86A1.762,1.762,0,0,0,26.433,18.1ZM14.1,48.055v3.524a1.763,1.763,0,0,0,1.762,1.762h3.524a1.762,1.762,0,0,0,1.762-1.762V48.055a1.762,1.762,0,0,0-1.762-1.762H15.86A1.762,1.762,0,0,0,14.1,48.055Zm15.86-1.762a1.762,1.762,0,0,0-1.762,1.762v3.524a1.763,1.763,0,0,0,1.762,1.762H68.725a1.762,1.762,0,0,0,1.762-1.762V48.055a1.762,1.762,0,0,0-1.762-1.762Z" transform="translate(1.177 -3.999) rotate(1)" fill="#b7c8cc7a"/></svg>