<svg xmlns="http://www.w3.org/2000/svg" width="294.205" height="125.399" viewBox="0 0 294.205 305.399">
  <g id="registration" transform="translate(0 -0.418)">
    <rect id="Rectangle_61" data-name="Rectangle 61" width="247" height="258" rx="47" transform="translate(47.205 0.418)" fill="#d1dee2"/>
    <g id="undraw_personal_information_re_vw8a" transform="translate(0 38.796)">
      <rect id="Rectangle_25" data-name="Rectangle 25" width="137.967" height="156.114" fill="#e6e6e6"/>
      <rect id="Rectangle_25-2" data-name="Rectangle 25-2" width="132.806" height="149.509" transform="translate(2.46 3.303)" fill="#fff"/>
      <circle id="Ellipse_116" data-name="Ellipse 116" cx="7.444" cy="7.444" r="7.444" transform="translate(61.539 132.607)" fill="#e6e6e6"/>
      <rect id="Rectangle_31" data-name="Rectangle 31" width="42.758" height="4.374" transform="translate(24.968 56.226)" fill="#e6e6e6"/>
      <rect id="Rectangle_32" data-name="Rectangle 32" width="64.533" height="4.374" transform="translate(24.968 69.333)"/>
      <rect id="Rectangle_38" data-name="Rectangle 38" width="58.199" height="4.374" transform="translate(24.968 82.523)" fill="#e6e6e6"/>
      <rect id="Rectangle_39" data-name="Rectangle 39" width="89.871" height="4.374" transform="translate(24.968 95.364)"/>
      <rect id="Rectangle_40" data-name="Rectangle 40" width="73.243" height="4.374" transform="translate(25.903 107.594)" fill="#e6e6e6"/>
      <g id="Group_51" data-name="Group 51" transform="translate(53.032 12.159)">
        <path id="Path_341" data-name="Path 341" d="M200.585,123.086a15.831,15.831,0,1,0,15.83,15.831h0a15.831,15.831,0,0,0-15.831-15.831Zm0,4.749a4.749,4.749,0,1,1-4.749,4.749h0a4.749,4.749,0,0,1,4.749-4.749Zm0,22.863a11.533,11.533,0,0,1-9.5-5.069c.076-3.166,6.332-4.909,9.5-4.909s9.422,1.743,9.5,4.909a11.551,11.551,0,0,1-9.5,5.069Z" transform="translate(-184.753 -123.085)"/>
      </g>
      <path id="Path_842" data-name="Path 842" d="M215.13,375.147c6.522-11.951,22.145-19.52,34.925-12.7a23.117,23.117,0,0,1,11.777,14.92c1.685,7.457-1.865,14.567-5.529,20.832-1.989,3.4-4.168,6.732-5.814,10.318-1.7,3.714-2.923,8.007-1.639,12.048,1.155,3.64,4.052,6.288,7.223,8.234a53.824,53.824,0,0,0,11.1,4.957,65.335,65.335,0,0,0,24.78,3.206,67.77,67.77,0,0,0,12.35-2c4.3-1.1,8.528-2.488,12.84-3.562,7.2-1.788,15.406-2.677,22.232.914,6.631,3.49,9.6,10.79,10.517,17.892,1.7,13.114-3.5,26.722-12.892,35.906a36.15,36.15,0,0,1-16.345,9.535c-5.386,1.3-12.3,1.216-16.589-2.81-4.783-4.494-3.658-11.7.141-16.441,4.849-6.05,13.064-7.5,20.395-7.65,8.339-.167,16.671,1.074,25,.3a38.408,38.408,0,0,0,11.825-2.852,29.966,29.966,0,0,0,8.911-6.03,39.148,39.148,0,0,0,10.341-18.582c2.078-8.327,1.625-17.078.012-25.441a114.729,114.729,0,0,0-3.315-12.758c-.557-1.766-3.346-1.011-2.785.768,4.967,15.75,7.737,33.962-1.86,48.586a28.93,28.93,0,0,1-17.3,12.453c-8.306,2.064-17.021,1.044-25.465.737-8.029-.292-16.846.023-23.728,4.7-5.646,3.836-9.6,11.131-7.889,18.019,1.646,6.642,8.029,10.011,14.413,10.53,6.7.546,13.29-1.7,18.915-5.218a46.755,46.755,0,0,0,21.111-33.808c.849-7.1-.015-14.757-3.237-21.206a20.76,20.76,0,0,0-7.627-8.5,25.087,25.087,0,0,0-10.866-3.348c-8.638-.8-16.938,2.17-25.133,4.439a69.694,69.694,0,0,1-12.816,2.447,64.007,64.007,0,0,1-12.645-.206,62.266,62.266,0,0,1-12.253-2.719,49.042,49.042,0,0,1-11.122-5.028c-3.073-1.965-5.731-4.78-5.882-8.615-.164-4.159,1.933-8.049,3.927-11.556,3.94-6.926,8.808-13.7,9.836-21.81.9-7.093-1.954-14.084-6.883-19.143a25.881,25.881,0,0,0-19.126-7.934,31.013,31.013,0,0,0-19.693,8.273,32.421,32.421,0,0,0-6.642,8.437c-.891,1.632,1.6,3.091,2.494,1.457Z" transform="translate(-146.083 -232.241)" fill="#3f3d56"/>
    </g>
  </g>
</svg>
