<svg xmlns="http://www.w3.org/2000/svg" width="560.138" height="210.001" viewBox="0 0 560.138 410.001"><g transform="translate(0 0.435)"><ellipse cx="201.5" cy="202" rx="201.5" ry="202" transform="translate(111.138 -0.435)" fill="#f2f2f2"/><circle cx="52" cy="52" r="52" transform="translate(322.138 21.565)" fill="#d1dee2"/><path d="M367.236,143.247l1.433,29.869c5.939,7.921,12.346,16.986,18.669,26.865l.9-45.568.5.318a88.941,88.941,0,0,0-22-11.761Z" transform="translate(-212.714 -104.105)" fill="#345b5e"/><path d="M346.458,169.042l-1.388-28.933c-8.144-2.777-16.046-3.7-23.269-2.411-.376.067-.745.144-1.114.222C322.523,139.89,333.218,151.518,346.458,169.042Z" transform="translate(-191.547 -101.418)" fill="#345b5e"/><path d="M473.492,253.318l.481.459q-2.961-5.568-6.277-10.828l-13.468,52.994-.228-.2q1.46,3.487,2.778,6.927Z" transform="translate(-252.823 -150.059)" fill="#345b5e"/><path d="M431.228,187.552l.5.4a139.821,139.821,0,0,0-24.115-22.533l-.92,46.437q8.827,13.929,15.805,27.44Z" transform="translate(-231.077 -114.422)" fill="#345b5e"/><path d="M271.3,233.212a116.742,116.742,0,0,0,4.613,23.074l80.314,8.284c-4.193-7.732-8.521-14.986-12.723-21.6l-72-9.129Z" transform="translate(-168.845 -145.584)" fill="#345b5e"/><path d="M282.918,285.117l-.216-.63,81.285,7.225q-1.473-2.881-2.979-5.686l-80.61-8.315-.212-.631Q281.4,281.054,282.918,285.117Z" transform="translate(-172.931 -165.747)" fill="#345b5e"/><path d="M459.2,225.844l.489.431a166.979,166.979,0,0,0-13.329-18.136l-8.852,52.44q4.6,9.036,8.337,17.817Z" transform="translate(-245.242 -134.059)" fill="#345b5e"/><path d="M474.471,362.447a136.18,136.18,0,0,1,3.647,39.507c4.546-9.685,21.832-49.809,15.37-87.2Z" transform="translate(-262.232 -183.063)" fill="#345b5e"/><path d="M312.838,344.256a161.531,161.531,0,0,0,14.022,16.46l-.2-.7,72.306,14.875a200.81,200.81,0,0,0-7.03-23.017Z" transform="translate(-187.939 -196.624)" fill="#345b5e"/><path d="M326.064,170.292c-14.329-18.957-25.636-30.938-25.8-31.11l.186-.4c-10.874,2.469-18.551,9.867-22.776,20.575Z" transform="translate(-171.777 -102.18)" fill="#345b5e"/><path d="M460.379,314.28c.267.713.539,1.428.8,2.138a199.5,199.5,0,0,1,6.324,20.768l18.837-47.243.46.461a79.1,79.1,0,0,0-6.014-19.036q-1.667-3.568-3.489-7.028Z" transform="translate(-255.755 -159.892)" fill="#345b5e"/><path d="M342.346,216.212c-6.258-9.762-12.593-18.718-18.464-26.546l-49.5-11.185-.168-.625c-3.09,8.138-4.22,18.134-3.284,29.3Z" transform="translate(-168.53 -120.14)" fill="#345b5e"/><path d="M411.722,390.684l-71.777-14.766c30.191,30.992,72.429,54.761,75.125,56.263C416.328,418.526,414.9,404.5,411.722,390.684Z" transform="translate(-200.398 -211.178)" fill="#345b5e"/><path d="M378.947,327.1l.016-.047a271.017,271.017,0,0,0-11.8-26.68l-81.485-7.243q2.075,5.5,4.691,11.108a97.107,97.107,0,0,0,9.024,15.2Z" transform="translate(-175.455 -173.126)" fill="#345b5e"/><path d="M632.5,329.218l-17.947,23.919c-.478,9.889-1.325,20.956-2.756,32.6l29.76-34.52.181.563a88.936,88.936,0,0,0-9.444-23.091Z" transform="translate(-325.352 -189.469)" fill="#345b5e"/><path d="M617.042,336.353l17.385-23.169c-4.5-7.334-10-13.083-16.384-16.7-.332-.188-.666-.364-1-.539C617.2,298.634,618.022,314.412,617.042,336.353Z" transform="translate(-327.764 -174.42)" fill="#345b5e"/><path d="M630.982,489.2l.078.66q1.271-6.177,2.072-12.343l-44.173,32.225-.047-.3q-1.1,3.617-2.279,7.107Z" transform="translate(-313.786 -257.875)" fill="#345b5e"/><path d="M641.231,404.656l.129.622a139.812,139.812,0,0,0-4.2-32.736L606.832,407.72q-2.086,16.358-5.329,31.215Z" transform="translate(-320.622 -209.626)" fill="#345b5e"/><path d="M509.163,337.317A116.744,116.744,0,0,0,498,358.03l56.574,57.606c1.7-8.629,3-16.977,3.976-24.748l-49.631-52.954Z" transform="translate(-273.047 -193.435)" fill="#345b5e"/><path d="M491.933,384.706l.235-.623,58,57.41q.7-3.158,1.332-6.279l-56.782-57.818.239-.621Q493.358,380.611,491.933,384.706Z" transform="translate(-270.259 -211.571)" fill="#345b5e"/><path d="M635.423,456.291l.1.644a166.986,166.986,0,0,0,1.3-22.47l-40.265,34.743q-2.219,9.895-4.943,19.04Z" transform="translate(-316.078 -238.089)" fill="#345b5e"/><path d="M547.791,576.756A136.178,136.178,0,0,1,525.4,609.51c9.678-4.56,48.584-24.437,67.457-57.359Z" transform="translate(-285.642 -292.182)" fill="#345b5e"/><path d="M479.634,449.337a161.514,161.514,0,0,0,.3,21.62l.3-.665,46.2,57.574a200.824,200.824,0,0,0,9.266-22.211Z" transform="translate(-264.501 -244.924)" fill="#345b5e"/><path d="M589.808,333.295c1.054-23.74-.012-40.179-.028-40.415l.4-.189c-9.95-5.034-20.581-4.233-30.665,1.32Z" transform="translate(-301.322 -171.383)" fill="#345b5e"/><path d="M577.723,529.53c-.249.72-.5,1.443-.75,2.154a199.536,199.536,0,0,1-8.376,20.029l44.64-24.372.06.649a79.1,79.1,0,0,0,7.51-18.5q.992-3.811,1.795-7.638Z" transform="translate(-305.497 -269.064)" fill="#345b5e"/><path d="M568.535,371.494c1.406-11.511,2.24-22.448,2.711-32.222l-30.989-40.185.269-.588c-7.57,4.3-14.817,11.275-21.217,20.472Z" transform="translate(-282.842 -175.593)" fill="#345b5e"/><path d="M526.374,548.165l-45.863-57.153c3.485,43.126,20.857,88.373,21.975,91.249C512.164,572.547,520.011,560.835,526.374,548.165Z" transform="translate(-265.009 -264.08)" fill="#6c63ff"/><path d="M536.4,478.29l.042-.026a271.028,271.028,0,0,0,7.929-28.074l-58.139-57.551q-1.907,5.556-3.472,11.547a97.11,97.11,0,0,0-2.745,17.464Z" transform="translate(-264.779 -218.863)" fill="#345b5e"/><path d="M318.459,388.674l10.6,27.963c8.1,5.7,16.992,12.338,26.059,19.778L341.886,392.8l.572.149a88.94,88.94,0,0,0-24.559-4.384Z" transform="translate(-190.265 -216.991)" fill="#345b5e"/><path d="M306.881,415.625l-10.263-27.088c-8.6-.124-16.4,1.442-22.874,4.9-.337.18-.664.367-.99.556C275.107,395.3,288.872,403.051,306.881,415.625Z" transform="translate(-169.514 -216.975)" fill="#345b5e"/><path d="M464.613,456.911l.6.288q-4.537-4.381-9.316-8.357l3.572,54.562-.279-.121q2.467,2.865,4.783,5.729Z" transform="translate(-253.695 -244.696)" fill="#6c63ff"/><path d="M393.757,410.788l.594.224a139.82,139.82,0,0,0-29.9-13.976l13.478,44.447Q390.63,452,401.443,462.7Z" transform="translate(-211.663 -220.885)" fill="#345b5e"/><path d="M255.027,492.8a116.747,116.747,0,0,0,11.519,20.518l78.941-16.947c-6.377-6.057-12.736-11.618-18.775-16.607l-71.3,13.572Z" transform="translate(-161.366 -258.91)" fill="#345b5e"/><path d="M282.122,535.645l-.4-.533,79.538-18.254q-2.291-2.285-4.59-4.487l-79.233,17.009-.4-.535Q279.426,532.249,282.122,535.645Z" transform="translate(-171.484 -273.898)" fill="#345b5e"/><path d="M438.61,436.473l.6.259A166.984,166.984,0,0,0,420.926,423.6l7.79,52.609q7.17,7.171,13.436,14.368Z" transform="translate(-237.621 -233.096)" fill="#345b5e"/><path d="M500.737,558.994a136.181,136.181,0,0,1,15.68,36.445c1.329-10.616,5.367-54.118-12.336-87.683Z" transform="translate(-274.305 -271.776)" fill="#6c63ff"/><path d="M328.856,582.018a161.512,161.512,0,0,0,18.423,11.32l-.4-.606,73.363-8.2a200.808,200.808,0,0,0-13.8-19.717Z" transform="translate(-195.301 -298.002)" fill="#345b5e"/><path d="M293.072,421.132c-19.487-13.6-33.943-21.5-34.151-21.612l.054-.437c-9.578,5.709-14.593,15.118-15.3,26.608Z" transform="translate(-156.148 -221.825)" fill="#345b5e"/><path d="M473.037,518.1c.474.6.954,1.191,1.418,1.787a199.5,199.5,0,0,1,12.433,17.8l3.311-50.752.58.3a79.1,79.1,0,0,0-11.6-16.245q-2.688-2.878-5.491-5.605Z" transform="translate(-261.573 -252.295)" fill="#6c63ff"/><path d="M320.209,461.307c-8.969-7.35-17.762-13.909-25.765-19.539l-50.531,4.663-.353-.542c-.423,8.694,1.592,18.551,5.933,28.88Z" transform="translate(-156.07 -241.445)" fill="#345b5e"/><path d="M437.249,603.318l-72.825,8.143c38.292,20.142,85.809,29.691,88.837,30.287C450.235,628.373,444.543,615.474,437.249,603.318Z" transform="translate(-211.65 -315.701)" fill="#345b5e"/><path d="M386.426,544.34v-.05a271.027,271.027,0,0,0-19.468-21.726l-79.734,18.3q3.672,4.585,7.894,9.114A97.112,97.112,0,0,0,308.4,561.645Z" transform="translate(-176.166 -278.583)" fill="#345b5e"/><path d="M645.787,687.369c0,24.173-124.35,67-277.743,67S90.3,711.542,90.3,687.369s124.35-20.534,277.743-20.534S645.787,663.2,645.787,687.369Z" transform="translate(-85.651 -344.806)" fill="#3f3d56"/><path d="M645.787,687.369c0,24.173-124.35,67-277.743,67S90.3,711.542,90.3,687.369s124.35-20.534,277.743-20.534S645.787,663.2,645.787,687.369Z" transform="translate(-85.651 -344.806)" opacity="0.1"/><ellipse cx="278" cy="44" rx="278" ry="44" transform="translate(4.138 298.565)" fill="#3f3d56"/><path d="M554.965,593.064c0,26.336-36.709,18.19-81.655,18.19s-81.11,8.146-81.11-18.19S428.9,561,473.85,561,554.965,566.729,554.965,593.064Z" transform="translate(-224.417 -296.25)" opacity="0.1"/><path d="M554.965,581.064c0,26.336-36.709,18.19-81.655,18.19s-81.11,8.146-81.11-18.19S428.9,549,473.85,549,554.965,554.729,554.965,581.064Z" transform="translate(-224.417 -290.734)" fill="#3f3d56"/><path d="M424.417,468.511a11.818,11.818,0,0,1,3.235-1.622,82.489,82.489,0,0,1,22.793-4.962c6.778-.481,14.123.09,19.417,4.35a6.676,6.676,0,0,1,1.97,2.295,8.4,8.4,0,0,1,.249,4.677,5.286,5.286,0,0,1-.454,1.761c-.712,1.356-2.466,1.831-3.989,1.669s-2.953-.807-4.455-1.106a19.91,19.91,0,0,0-2.814-.287l-9.424-.51c-5.86-.317-11.8-.629-17.545.553a17.475,17.475,0,0,0-5.069,1.747c-1.313.737-2.2,1.795-3.415.433C422.774,475.116,421.59,470.72,424.417,468.511Z" transform="translate(-238.46 -250.646)" fill="#2f2e41"/><path d="M450.628,480s12.675-5.682,17.483.874-2.623,3.934-2.623,3.934l-8.3,2.622-9.179-1.748Z" transform="translate(-250.068 -257.968)" fill="#f2f2f2"/><path d="M454.072,470.914s1.748,8.3.437,10.49,7.43,5.245,7.43,5.245l8.3-3.5s-2.185-13.549,0-16.172Z" transform="translate(-252.856 -253.034)" fill="#ffb9b9"/><path d="M454.072,470.914s1.748,8.3.437,10.49,7.43,5.245,7.43,5.245l8.3-3.5s-2.185-13.549,0-16.172Z" transform="translate(-252.856 -253.034)" opacity="0.1"/><path d="M434.941,651.491a47.809,47.809,0,0,1,2.888,7.569.616.616,0,0,0,.765.509l7.774-.009c.959,0,2.247-.309,2.237-1.269-.007-.674-.7-1.094-1.209-1.532-1.423-1.214-1.794-3.217-2.383-4.992a16.936,16.936,0,0,0-6.3-8.464,3.689,3.689,0,0,0-1.347-.666,3.756,3.756,0,0,0-1.477.08c-1.365.275-6.461,1.217-5.5,3.2.415.855,1.951,1.744,2.595,2.543a18.255,18.255,0,0,1,1.957,3.028Z" transform="translate(-241.915 -333.756)" fill="#575a89"/><path d="M484.087,638.6a17.649,17.649,0,0,1-.914,1.68c-1.126,1.858-2.455,3.59-3.5,5.493a9.066,9.066,0,0,0-1.277,3.822,4.246,4.246,0,0,0,1.484,3.612,5.452,5.452,0,0,0,4.078.7,19.722,19.722,0,0,1,4.21-.5c-.476-2.7,1.8-5.068,2.365-7.745.16-.752.183-1.532.4-2.27a11.128,11.128,0,0,1,.88-1.946,25.157,25.157,0,0,0,2.374-7c.054-.3-6.911-.344-7.564-.2C484.578,634.68,484.876,636.906,484.087,638.6Z" transform="translate(-264.027 -329.878)" fill="#575a89"/><path d="M388.47,556.753c-1.988,3.111-1.53,7.234-.134,10.652s3.619,6.44,5.14,9.8c.97,2.145,1.65,4.419,2.742,6.5,1.352,2.582,3.326,4.858,4.234,7.628.578,1.766.711,3.7,1.648,5.305a16.254,16.254,0,0,0,1.93,2.395,22.132,22.132,0,0,1,4.449,7.947c.856-2.551,3.421-4.224,6.054-4.775a23.358,23.358,0,0,1,8.027.2,33.746,33.746,0,0,1-3.873-7.228A72.6,72.6,0,0,1,417,587.423c-1.184-5.3-3.712-10.2-6.215-15.023l12.866-1.021a50.148,50.148,0,0,1,6.321-.234c3.321.157,6.574.971,9.877,1.347s6.8.278,9.741-1.267a46.682,46.682,0,0,0-8.375,27.569,10.674,10.674,0,0,1,16.158,3.813c5.042-6.89,4.443-16.482,8.438-24.028.822-1.552,1.828-3,2.715-4.512a66.508,66.508,0,0,0,4.29-9.48c1.118-2.859,2.243-6.039,1.172-8.915a9.308,9.308,0,0,0-1.91-2.937,12.855,12.855,0,0,0-8.944-4.5c-5.266-.12-9.616,3.783-14.235,6.314a32.759,32.759,0,0,1-17.977,3.728c-6.345-.449-12.4-2.526-18.45-4.355a87.791,87.791,0,0,0-9.208-2.375,17.209,17.209,0,0,0-7.616.715C392.866,552.983,390.071,554.248,388.47,556.753Z" transform="translate(-222.087 -290.38)" fill="#2f2e41"/><path d="M468.973,447.738A13.123,13.123,0,0,1,455.86,460.85a12.793,12.793,0,0,1-2.33-.21,13.112,13.112,0,1,1,15.442-12.9Z" transform="translate(-247.651 -238.162)" fill="#ffb9b9"/><path d="M440.776,481.758a15.407,15.407,0,0,1,3.278,1.967c.874.874,3.5,5.682,7.867,2.622s4.808-4.808,6.119-4.808,3.06,2.622,3.06,2.622l12.02,36.059a50.341,50.341,0,0,1-11.145,9.4c-6.993,4.371-15.3,6.556-19.231,4.808s-11.364-3.06-12.675-6.556-3.5-13.986-3.5-13.986l6.119-26.662Z" transform="translate(-240.215 -259.726)" fill="#f2f2f2"/><path d="M433.338,515.891a17.169,17.169,0,0,0,1.172-6.655,40.348,40.348,0,0,0-.178-6.732c-.387-2.924-1.339-5.74-1.941-8.628a36.473,36.473,0,0,1-.764-7.7,6.276,6.276,0,0,1,.737-3.412,10.888,10.888,0,0,0,1.431-2c.55-1.518-.809-3.107-2.3-3.733a9.038,9.038,0,0,0-5.658-.227,26.914,26.914,0,0,0-5.322,2.177,12.184,12.184,0,0,0-3.477,2.248,11.365,11.365,0,0,0-2.435,5.251,10.754,10.754,0,0,0-.435,4.628c.476,2.492,2.508,4.367,3.591,6.662,1.258,2.665,1.173,5.77.673,8.674s-1.388,5.743-1.662,8.677.146,6.088,1.985,8.391c.749.938,2.781,3.163,4.152,2.911,1.077-.2,2.639-2.569,3.507-3.321C428.923,520.932,431.9,519,433.338,515.891Z" transform="translate(-234.465 -257.39)" fill="#2f2e41"/><path d="M486.107,475.424a13.142,13.142,0,0,1-2.3,6.84,47.881,47.881,0,0,0-3.679,6.31,14.462,14.462,0,0,0-.675,8.9,28.707,28.707,0,0,0,.964,2.977l2.395,6.569a11.4,11.4,0,0,0,1.389,2.916,9.415,9.415,0,0,0,1.887,1.816,17.614,17.614,0,0,0,6.158,3.212,10.414,10.414,0,0,0,6.847-.391,99.082,99.082,0,0,1,4.253-26.26,9.528,9.528,0,0,0,.633-4.832c-.414-1.8-1.855-3.143-3.226-4.373-4.191-3.764-8.8-7.717-14.411-8.225C483.095,470.585,486.08,473.662,486.107,475.424Z" transform="translate(-264.335 -254.817)" fill="#2f2e41"/><path d="M434.864,567.342c.332.651.539,1.359.868,2.012a11.243,11.243,0,0,0,1.783,2.4c2.922,3.24,6.495,6.469,10.854,6.664a2.976,2.976,0,0,0,1.279-.161,2.536,2.536,0,0,0,1.361-1.947c.309-1.693-.438-3.382-1.186-4.931-1.621-3.358-3.446-6.8-6.482-8.968a12.162,12.162,0,0,0-10.492-1.579c-1.581.487-4.2,1.338-2.11,2.781C432.328,564.707,433.943,565.54,434.864,567.342Z" transform="translate(-241.774 -295.919)" fill="#ffb9b9"/><path d="M461.27,489.5a9.768,9.768,0,0,0-2.051-3.307,7.609,7.609,0,0,0-3.133-1.587,17.134,17.134,0,0,0-4.6-.659c-1.851-.012-4,.485-4.783,2.161-.624,1.331-.14,2.907.488,4.236a4.153,4.153,0,0,0,1.3,1.75,7.193,7.193,0,0,0,2.777.7,12.809,12.809,0,0,1,4.1,1.86l3.242,1.96,5.569,3.366c-.147-.089-.095-3.908-.266-4.533A44.142,44.142,0,0,0,461.27,489.5Z" transform="translate(-249.337 -260.832)" fill="#ffb9b9"/><path d="M436.335,669.888c-1.3,1.771-1.042,4.3-2.2,6.173-1,1.622-2.886,2.472-4.138,3.91a10.483,10.483,0,0,0-1.064,1.53c-1.161,1.945-2.1,4.437-.961,6.392.92,1.573,2.853,2.187,4.626,2.606a16.976,16.976,0,0,0,6.836.549,6.809,6.809,0,0,0,5.291-3.949,15.27,15.27,0,0,1,.566-1.6c1.229-2.419,5.083-2.445,6.34-4.849.88-1.682.071-3.716-.738-5.434l-2.469-5.247c-.82-1.741-4.142-.74-5.874-1.157C440.295,668.272,437.96,667.672,436.335,669.888Z" transform="translate(-240.623 -345.573)" fill="#2f2e41"/><path d="M475.427,662.109a7.023,7.023,0,0,0-2.234,3.061,33.478,33.478,0,0,0-2.049,8.957,10.847,10.847,0,0,0-.071,3.674c.527,2.488,2.781,4.32,5.207,5.08a21.7,21.7,0,0,0,7.569.519,5.42,5.42,0,0,0,2.379-.483,3.689,3.689,0,0,0,1.556-3.8,10.813,10.813,0,0,0-1.777-3.96,10.844,10.844,0,0,1-1.779-3.959c-.371-2.424.676-5.981-.813-8.174S477.418,660.714,475.427,662.109Z" transform="translate(-260.614 -342.302)" fill="#2f2e41"/><path d="M465.028,435.1a3.328,3.328,0,0,0-1.444-1.884,7.639,7.639,0,0,0-.3-2.487c-.794-2.348-2.675-2.213-4.45-3.251-.77-.45-.723-.848-1.123-1.588a5.894,5.894,0,0,0-2.271-2.317,8.171,8.171,0,0,0-3.688-1.565c-2.831-.193-5,2.47-7.707,3.324-1.193.377-2.474.392-3.673.748a3.379,3.379,0,0,0-2.574,2.444c-.082.571.063,1.158-.021,1.729-.166,1.136-1.163,1.931-1.829,2.865a7.058,7.058,0,0,0-.127,7.23,10.159,10.159,0,0,0,.85,1.331,8.187,8.187,0,0,0,.9,3.04,15.152,15.152,0,0,0,5.329,5.321,12.578,12.578,0,0,1-.314-2.269,1.565,1.565,0,0,1,.1-.752c.236-.494.86-.625,1.336-.9a3.376,3.376,0,0,0,1.4-2.932c.028-1.133-.212-2.267-.093-3.394a1.855,1.855,0,0,1,.635-1.364,2.193,2.193,0,0,1,1.2-.285c2.019-.082,4.128-.119,5.908-1.074a8.755,8.755,0,0,1,1.839-.93c1.513-.395,3.06.666,3.932,1.964s1.307,2.843,2.111,4.183,2.195,2.537,3.75,2.378a.623.623,0,0,0,.465-.207.7.7,0,0,0,.086-.4l.087-5.946A8.989,8.989,0,0,0,465.028,435.1Z" transform="translate(-244.037 -232.359)" fill="#2f2e41"/><path d="M406.808,499.122c-1.251,1.846-2.694,3.62-3.381,5.741-.4,1.247-.53,2.565-.822,3.842-.975,4.255-3.79,8.034-4.073,12.39a5.892,5.892,0,0,0,.414,2.845c.808,1.757,2.741,2.683,4.585,3.265s3.824,1,5.3,2.256a16.233,16.233,0,0,1,2.007,2.327,19.44,19.44,0,0,0,9.286,6.353c-.289-1.989-.424-4.386,1.166-5.615a5.757,5.757,0,0,1,3.094-.878l5.121-.443a65.808,65.808,0,0,0-11.226-8.745c-1.416-.875-2.957-1.8-3.6-3.331a8.046,8.046,0,0,1-.408-3.073,75.732,75.732,0,0,0-.965-11.369c-.422-2.611-.98-5.2-1.618-7.765-.179-.72-1.239-3.952-2.543-3.2-.307.178-.595,2.228-.774,2.654a16.092,16.092,0,0,1-1.553,2.742Z" transform="translate(-227.313 -265.275)" fill="#2f2e41"/><path d="M498.2,490.052,500.3,494.4a10.451,10.451,0,0,1,1.319,5.881l.124,13.047a19,19,0,0,1-.429,5.2,4.161,4.161,0,0,1-.721,1.551,4.849,4.849,0,0,1-1.237,1c-3.958,2.473-9.09,3.879-13.272,1.806a18.362,18.362,0,0,1-2.721-1.776,21.626,21.626,0,0,1-4.6-4.15,28.547,28.547,0,0,1-2.931-5.8,44.541,44.541,0,0,0-6.055-9.931,2.619,2.619,0,0,1-.75-1.486c-.026-1.144,1.331-1.707,2.389-2.142,1.807-.743,3.512-2.178,3.814-4.108,3.843,5.04,8.084,10.365,14.149,12.207a.626.626,0,0,0,.963-.535c.344-1.44.466-2.924.718-4.383a24.967,24.967,0,0,1,2.634-7.6C494.4,491.852,496.729,486.982,498.2,490.052Z" transform="translate(-259.726 -263.18)" fill="#2f2e41"/><path d="M424.689,514.178a20.06,20.06,0,0,1-1.917,8.939,7.385,7.385,0,0,0-.75,1.969,5.317,5.317,0,0,0,1.563,4.031,16.577,16.577,0,0,0,7.088,4.931" transform="translate(-238.107 -274.728)" opacity="0.1"/><path d="M509.324,509.362a4.274,4.274,0,0,0,.209,2.6,26.162,26.162,0,0,1,.953,7.591.276.276,0,0,1-.323.331,3.484,3.484,0,0,1-2.848-.675" transform="translate(-277.329 -272.514)" opacity="0.1"/><ellipse cx="67.5" cy="14.5" rx="67.5" ry="14.5" transform="translate(336.138 331.565)" opacity="0.1"/><path d="M805.471,399l-4.863,4.863,4.863,4.863L810.334,399Z" transform="translate(-367.994 -183.423)" fill="#a0616a"/><path d="M888.3,391.724c1.365.559,2.014,2.085,2.528,3.467l6.309,16.952,1.228,3.3c.6,1.618,1.2,3.237,1.714,4.887q.483,1.565.853,3.163a8.319,8.319,0,0,1,.291,2.8,7.792,7.792,0,0,1-1.115,2.921,26.149,26.149,0,0,1-9.086,9.319,8.482,8.482,0,0,0-4.932-6.45l3.262-1.794a5.9,5.9,0,0,0,1.828-1.339,4.015,4.015,0,0,0,.7-3.06,13.15,13.15,0,0,0-.968-3.07,83.808,83.808,0,0,1-2.845-8.351,17.808,17.808,0,0,0-1.848-4.862c-.852-1.33-2.085-2.393-2.859-3.769a10,10,0,0,1-.628-7.03c.44-1.984,1.177-3.893,1.8-5.824C885.013,391.471,886.837,391.126,888.3,391.724Z" transform="translate(-449.727 -218.315)" fill="#d0cde1"/><path d="M822.123,306.978a7.725,7.725,0,0,0-5.295,5.426c-.238,1.2-.092,2.456-.292,3.666-.465,2.808-2.669,4.953-4.7,6.945s-4.133,4.307-4.281,7.149c-.162,3.113,2.095,6.029,1.7,9.121-.454,3.593-4.248,5.921-5.186,9.418a9.061,9.061,0,0,0,1.4,6.913,19.786,19.786,0,0,0,10.9,8.027,45.409,45.409,0,0,0,13.653,1.779c5.61.059,11.7-.423,15.917-4.126a12.751,12.751,0,0,0,4.233-8.3c.4-4.289-1.39-8.721-.155-12.848.777-2.6,2.726-4.969,2.435-7.665-.284-2.635-2.586-4.5-4.165-6.632a26.96,26.96,0,0,1-3.246-6.65l-3-7.919a9.192,9.192,0,0,0-2.552-4.216c-2.46-1.913-6.417-1.537-9.294-1.142C827.531,306.291,824.689,306.111,822.123,306.978Z" transform="translate(-413.628 -178.859)" fill="#2f2e41"/><path d="M841.364,354.961s.294,8.809-.587,9.69S844.3,371.4,844.3,371.4l7.928-.294,4.111-3.23-3.524-4.7s-1.468-7.635-.294-9.4S841.364,354.961,841.364,354.961Z" transform="translate(-430.549 -200.746)" fill="#a0616a"/><path d="M841.364,354.961s.294,8.809-.587,9.69S844.3,371.4,844.3,371.4l7.928-.294,4.111-3.23-3.524-4.7s-1.468-7.635-.294-9.4S841.364,354.961,841.364,354.961Z" transform="translate(-430.549 -200.746)" opacity="0.1"/><path d="M726.3,408.243l4.992,11.158,3.818-4.7-7.635-9.984Z" transform="translate(-333.84 -186.051)" fill="#a0616a"/><path d="M696.832,618.009l-2.056,11.452-3.524,4.992,2.056,1.174,3.524-.587,4.111-1.468,1.762-6.753,3.23-8.809Z" transform="translate(-317.73 -284.088)" fill="#a0616a"/><path d="M770.136,604.967l-1.175,16.444,2.936,2.349,4.7-4.111V607.61Z" transform="translate(-353.448 -278.094)" fill="#a0616a"/><circle cx="10.571" cy="10.571" r="10.571" transform="translate(405.089 136.45)" fill="#a0616a"/><path d="M834,369.232a2.447,2.447,0,0,0-2.037-.039,16.54,16.54,0,0,0-1.864.971,8.635,8.635,0,0,1-5.018.913,1.726,1.726,0,0,1-.586-.151,2.821,2.821,0,0,1-.538-.434,3.111,3.111,0,0,0-4.307.371c-.31.387-.523.849-.862,1.211-.878.938-2.326.976-3.61.974a33.476,33.476,0,0,0-7.932.727,14.527,14.527,0,0,0-6.965,3.691,5.3,5.3,0,0,0-1.237,1.764c-.354.914-.308,1.94-.626,2.867-.355,1.032-1.14,1.879-1.458,2.923a11.631,11.631,0,0,1-.607,2.379c1.716,1.485,3.17,3.466,4.886,4.951a7.991,7.991,0,0,1,2.753,3.488,11.418,11.418,0,0,1,.254,2.7c.212,4.343,2.568,8.284,5.2,11.744a13.241,13.241,0,0,0,2.567,2.728,11.143,11.143,0,0,0,4.432,1.78,43.44,43.44,0,0,0,9.149.58,31.1,31.1,0,0,0,9.392-1.082,8.351,8.351,0,0,0,3.97-2.465c1.237-1.52,1.72-3.718,3.408-4.713a6.194,6.194,0,0,0,1.154-.689,3,3,0,0,0,.707-1.32,20.447,20.447,0,0,0,.966-5.7,16.576,16.576,0,0,1,.235-3.47,11.8,11.8,0,0,1,1.265-2.871l3.5-6.344a4.47,4.47,0,0,0,.236-1.862,4.592,4.592,0,0,0-.752-2.382,20.32,20.32,0,0,0-10.107-8.847,4.166,4.166,0,0,1-.955-.468,3.928,3.928,0,0,1-.874-1.043C836.81,370.72,835.676,369.145,834,369.232Z" transform="translate(-410.183 -207.993)" fill="#d0cde1"/><path d="M783.965,417.868a25.174,25.174,0,0,0-1.511,5.209A12.656,12.656,0,0,0,783.6,430.3c1.885,3.88,5.6,6.512,8.215,9.939,2.434,3.185,3.883,7,5.99,10.411a2.651,2.651,0,0,1,.68-2.6,13.843,13.843,0,0,0,1.811-2.16,6.3,6.3,0,0,0,.558-2.044c.315-2.114.484-4.411-.594-6.257-.811-1.389-2.213-2.312-3.322-3.477a10.365,10.365,0,0,1-2.624-8.972c.214-1.1.606-2.154.9-3.234a37,37,0,0,0,.825-4.409l1.322-9.082c.352-2.416.649-5.089-.719-7.111a2.978,2.978,0,0,0-1.073-1.015,3.854,3.854,0,0,0-1.142-.322c-1.439-.235-3.388-.865-4.091.677-.848,1.861-1.439,3.89-2.149,5.809Z" transform="translate(-403.741 -222.081)" fill="#d0cde1"/><path d="M831.244,442.57s-17.456,3.377-21.567,3.377h-7.341a22.256,22.256,0,0,0-2.643,9.4c0,4.7-17.325,70.473-17.325,70.473s-16.444,54.029,1.762,54.323,29.657,1.175,29.951-4.992,2.055-85.742,2.055-85.742l2.741,40.918a101.579,101.579,0,0,1-2.334,30.209c-1.315,5.548-1.111,11.63,5.466,12.854,12.626,2.349,28.483.294,28.483-4.111s-8.222-102.186-8.222-102.186-4.111-14.388-6.46-15.563S831.244,442.57,831.244,442.57Z" transform="translate(-400.624 -241.814)" fill="#2f2e41"/><path d="M771.754,706.364l6.46-2.349,4.4-11.158,4.7-.587s-2.643,5.579-4.111,6.46-3.817,8.222-3.817,8.222,1.175,2.936-4.4,4.111-9.69,2.055-9.69,2.055-.587-1.175,2.056-4.111a70.038,70.038,0,0,0,5.729-7.88Z" transform="translate(-395.882 -356.586)" fill="#2f2e41"/><path d="M849.658,690.6l-1.174,8.809s3.23,4.7,4.111,4.7S858.173,700,858.173,700a34.518,34.518,0,0,1,0-5.579c.294-1.175.881-6.754,0-7.047s-.881,6.544-.881,6.544l-3.817,4.027-3.681-2.207Z" transform="translate(-434.145 -354.331)" fill="#2f2e41"/><ellipse cx="11.452" cy="6.166" rx="11.452" ry="6.166" transform="translate(405.089 134.688)" fill="#2f2e41"/><path d="M81.7,555.659c0,34.592,21.7,62.582,48.519,62.582" transform="translate(-81.696 -293.794)" fill="#3f3d56"/><path d="M171.487,617.645c0-34.98,24.217-63.286,54.144-63.286" transform="translate(-122.968 -293.197)" fill="#345b5e"/><path d="M114.229,561.463c0,32.858,13.838,59.447,30.94,59.447" transform="translate(-96.65 -296.462)" fill="#345b5e"/><path d="M171.487,602.691c0-44.7,27.991-80.865,62.582-80.865" transform="translate(-122.968 -278.243)" fill="#3f3d56"/><path d="M152.6,669.13s6.881-.212,8.955-1.689,10.584-3.24,11.1-.872,10.341,11.779,2.572,11.841-18.05-1.21-20.12-2.471S152.6,669.13,152.6,669.13Z" transform="translate(-114.285 -344.242)" fill="#a8a8a8"/><path d="M175.361,680.742c-7.768.063-18.05-1.21-20.12-2.471-1.576-.96-2.2-4.405-2.414-5.995l-.23.009s.436,5.549,2.506,6.81,12.352,2.533,20.12,2.471c2.242-.018,3.017-.816,2.974-2C177.886,680.283,177.03,680.729,175.361,680.742Z" transform="translate(-114.285 -347.397)" opacity="0.2"/></g></svg>