<svg xmlns="http://www.w3.org/2000/svg" width="306.202" height="118" viewBox="0 0 306.202 258">
  <g id="verification" transform="translate(0 -0.418)">
    <rect id="Rectangle_63" data-name="Rectangle 63" width="247" height="258" rx="47" transform="translate(59.202 0.418)" fill="#d1dee2"/>
    <g id="undraw_Social_bio_re_0t9u" transform="translate(0 38.796)">
      <path id="Path_55" data-name="Path 55" d="M373.384,566.436l-5.8-3.7a86.577,86.577,0,0,1-.249-9.755l3.009.769-2.97-1.892c.164-4.022.527-6.675.527-6.675s11.729,7.619,19.209,17.945l-1.275,8.734,3.042-6.108a35.042,35.042,0,0,1,2.093,3.872c6.163,13.464,6.762,26.392,1.338,28.875s-14.818-6.419-20.981-19.883a46.114,46.114,0,0,1-3.512-13.609Z" transform="translate(-345.791 -430.183)" fill="#f0f0f0"/>
      <path id="Path_56" data-name="Path 56" d="M315.133,620.137l-6.876-.165A86.567,86.567,0,0,1,303,611.75l2.973-.9-3.521-.085c-1.939-3.528-3-5.987-3-5.987s13.978.459,25.72,5.432l3.422,8.136-.553-6.8a35.013,35.013,0,0,1,3.793,2.233c12.236,8.34,19.431,19.1,16.07,24.027s-16,2.164-28.238-6.176a46.113,46.113,0,0,1-10.041-9.835Z" transform="translate(-299.455 -470.888)" fill="#f0f0f0"/>
      <path id="Path_57" data-name="Path 57" d="M627.705,331.247l-5.388-.634-1.9,16.482-4.856,22.761a3.486,3.486,0,1,0,3.782.477l4.877-13.412Z" transform="translate(-514.027 -283.621)" fill="#ffb6b6"/>
      <path id="Path_58" data-name="Path 58" d="M369.679,484.067h-4.439l-2.112-17.124h6.552Z" transform="translate(-248.173 -318.939)" fill="#ffb6b6"/>
      <path id="Path_59" data-name="Path 59" d="M655.522,704.505H641.207v-.181a5.572,5.572,0,0,1,5.571-5.572h8.744Z" transform="translate(-532.883 -535.074)" fill="#2f2e41"/>
      <path id="Path_60" data-name="Path 60" d="M470.427,477.1l-4.359.842-5.321-16.412,6.434-1.242Z" transform="translate(-314.851 -314.391)" fill="#ffb6b6"/>
      <path id="Path_61" data-name="Path 61" d="M765.787,696.168l-14.055,2.714-.034-.178a5.572,5.572,0,0,1,4.414-6.527h0l8.584-1.658Z" transform="translate(-608.283 -529.45)" fill="#2f2e41"/>
      <path id="Path_62" data-name="Path 62" d="M647.744,202.973l2.579,4.949,19.319-4.261-2.116-9.6c-1.675-7.6-8.391-13.08-15.986-11.4s-11.139,9.1-9.464,16.694l3.113,9.7,3.15-.695Z" transform="translate(-533.199 -182.358)" fill="#2f2e41"/>
      <path id="Path_63" data-name="Path 63" d="M637.627,417.792s-1.9,9.509.634,23.455,3.17,19.969,3.17,19.969-1.9,2.219-.634,3.487,0,3.8,0,3.8l2.853,30.746,9.826-1.585-1.268-28.844s1.268-2.536.634-3.17.634-4.437.634-4.437L655.06,431.1l9.826,32.964s-.951,1.268,0,2.219,2.853,5.705,2.853,5.705l6.339,22.188,10.143-1.9-5.705-25.357a2.566,2.566,0,0,0-.317-2.536,2.482,2.482,0,0,1-.634-2.219s.951-.951-.317-2.219-1.9-6.339-1.9-6.339-.951-33.915-4.121-35.817S637.627,417.792,637.627,417.792Z" transform="translate(-529.97 -342.59)" fill="#2f2e41"/>
      <circle id="Ellipse_12" data-name="Ellipse 12" cx="8.875" cy="8.875" r="8.875" transform="translate(113.113 5.006)" fill="#ffb6b6"/>
      <path id="Path_64" data-name="Path 64" d="M664.366,261.676s6.442-.755,8.344,1.147l-1.9,38.353s1.268.951.634,3.17a9.057,9.057,0,0,0,0,4.438s1.9,2.219.951,3.17-35.183.317-35.183.317-1.268-2.219.634-3.487.951-4.754.951-4.754-.634-.951.951-2.536,2.853-14.58,2.853-14.58l-4.121-15.848s4.148-4.682,8.889-5.035Z" transform="translate(-529.87 -236.434)" fill="#e6e6e6"/>
      <path id="Path_65" data-name="Path 65" d="M636.42,291.831l-4.911-.218s-2.853,5.705-3.17,10.777l-1.746,18.919,11.255,1.684Z" transform="translate(-522.902 -256.983)" fill="#e6e6e6"/>
      <path id="Path_66" data-name="Path 66" d="M653.053,203.451l-3.3-4.242a3.458,3.458,0,0,1,2.625-4.111l12.454-2.747a3.458,3.458,0,0,1,4.111,2.625l.007.031-.892,5.122-.157-.028c-7.729-1.378-9.931-.893-14.726,3.241Z" transform="translate(-538.669 -189.129)" fill="#2f2e41"/>
      <path id="Path_67" data-name="Path 67" d="M745.938,349.321l-.594-24.958-.634-17.75-7.607.951,4.085,42.424a3.487,3.487,0,1,0,4.75-.667Z" transform="translate(-598.383 -267.229)" fill="#ffb6b6"/>
      <path id="Path_68" data-name="Path 68" d="M732.594,266.148l5.549-.535s.951,0,1.9,3.17,6.179,36.669,6.179,36.669l-11.567,1.05Z" transform="translate(-595.304 -239.224)" fill="#e6e6e6"/>
      <path id="Path_69" data-name="Path 69" d="M478.783,323.119h-.742V302.8a11.759,11.759,0,0,0-11.759-11.759H423.237A11.759,11.759,0,0,0,411.477,302.8V414.266a11.759,11.759,0,0,0,11.759,11.759h43.046a11.759,11.759,0,0,0,11.759-11.759V337.581h.742Z" transform="translate(-375.97 -256.593)" fill="#3f3d56"/>
      <path id="Path_70" data-name="Path 70" d="M473.748,300.694h-5.619a4.172,4.172,0,0,1-3.863,5.748h-24.66a4.172,4.172,0,0,1-3.863-5.748H430.5a8.782,8.782,0,0,0-8.782,8.782v111.3a8.782,8.782,0,0,0,8.782,8.782h43.253a8.782,8.782,0,0,0,8.782-8.782h0v-111.3a8.782,8.782,0,0,0-8.782-8.782Z" transform="translate(-382.962 -263.186)" fill="#fff"/>
      <path id="Path_71" data-name="Path 71" d="M487.685,396.406l1.2,4.143,15.284-.27-.134-7.591c-.106-6.009-4.352-11.191-10.361-11.085s-9.829,5.186-9.723,11.194l.873,7.823,2.492-.044Z" transform="translate(-425.468 -318.449)" fill="#2f2e41"/>
      <circle id="Ellipse_13" data-name="Ellipse 13" cx="6.857" cy="6.857" r="6.857" transform="translate(62.027 67.139)" fill="#ffb6b6"/>
      <path id="Path_72" data-name="Path 72" d="M503.664,447.4l-.155,2.884a18.361,18.361,0,0,1-25.449.986c-.158-.139-.314-.285-.466-.434.951-.945,3.575-3.277,6.488-3.493l13.135-.827S502.194,445.932,503.664,447.4Z" transform="translate(-421.13 -362.709)" fill="#e4e4e4"/>
      <path id="Path_73" data-name="Path 73" d="M507.754,394.98a2.659,2.659,0,0,0-.472-1.468c-.032-.044-.063-.086-.1-.127a2.672,2.672,0,0,0-2.143-1.024l-4.929.089-4.926.086a2.669,2.669,0,0,0-2.615,2.71l1.173,2.361.675,1.357.111-.063c4.263-2.4,6.006-2.428,11.649-.2l.114.044.447-1.144,1.014-2.6Z" transform="translate(-431.362 -325.798)" fill="#2f2e41"/>
      <path id="Path_74" data-name="Path 74" d="M551.712,450.982a18.582,18.582,0,0,1-5.09,4.495l-.307-5.509,4.288-.415S551.116,449.552,551.712,450.982Z" transform="translate(-468.068 -364.861)" fill="#e4e4e4"/>
      <path id="Path_75" data-name="Path 75" d="M477.295,396.814a18.643,18.643,0,0,1-12.423-4.724c-.162-.142-.321-.292-.477-.445a18.51,18.51,0,0,1-5.8-13.533,18.7,18.7,0,0,1,37.4,0,18.5,18.5,0,0,1-3.95,11.495,18.687,18.687,0,0,1-14.751,7.206Zm0-36.768a18.088,18.088,0,0,0-18.067,18.067,17.885,17.885,0,0,0,5.607,13.076c.151.148.3.29.457.426a18.089,18.089,0,0,0,26.255-2.4,17.871,17.871,0,0,0,3.816-11.1A18.088,18.088,0,0,0,477.295,360.046Z" transform="translate(-408.152 -303.292)" fill="#3f3d56"/>
      <path id="Path_76" data-name="Path 76" d="M494.25,548.428H461.305a2.5,2.5,0,1,1,0-5H494.25a2.5,2.5,0,1,1,0,5Z" transform="translate(-408.296 -428.98)"/>
      <path id="Path_77" data-name="Path 77" d="M494.25,573.428H461.305a2.5,2.5,0,0,1,0-5H494.25a2.5,2.5,0,1,1,0,5Z" transform="translate(-408.296 -446.055)"/>
      <path id="Path_78" data-name="Path 78" d="M503.513,523.125h-16.9a2.5,2.5,0,0,1,0-5h16.9a2.5,2.5,0,1,1,0,5Z" transform="translate(-425.579 -411.697)"/>
    </g>
  </g>
</svg>
